<svg width="24" height="25" viewBox="0 0 24 25" fill="none" xmlns="http://www.w3.org/2000/svg">
<circle cx="12" cy="12.3906" r="10" fill="url(#paint0_linear)"/>
<path d="M16.8964 11.0309C16.8342 10.9649 16.751 10.9253 16.6626 10.9195L13.644 10.4602L12.3092 7.59922C12.2205 7.41316 12.0045 7.33749 11.8267 7.43024C11.7567 7.46671 11.7 7.52604 11.6652 7.59922L10.316 10.464L7.30816 10.9195C7.11154 10.9493 6.97522 11.1403 7.00378 11.3461C7.01525 11.4288 7.05271 11.5052 7.11028 11.5632L9.29418 13.7918L8.7473 16.9389C8.71474 17.144 8.84724 17.3378 9.04323 17.3719C9.1204 17.3853 9.19965 17.3721 9.269 17.3341L11.9854 15.8509L14.6874 17.3379C14.8583 17.444 15.079 17.385 15.1804 17.2062C15.226 17.1258 15.2413 17.0305 15.2235 16.9389L14.709 13.7918L16.8929 11.5632C17.0344 11.4172 17.0359 11.1788 16.8964 11.0309Z" fill="white"/>
<defs>
<linearGradient id="paint0_linear" x1="12" y1="2.39062" x2="12" y2="22.3906" gradientUnits="userSpaceOnUse">
<stop stop-color="#EE656A"/>
<stop offset="1" stop-color="#E21C23"/>
</linearGradient>
</defs>
</svg>
