<svg width="20" height="20" viewBox="0 0 20 20" fill="none" xmlns="http://www.w3.org/2000/svg">
<circle cx="10" cy="10" r="10" fill="url(#paint0_linear)"/>
<path d="M14.8964 8.64023C14.8342 8.57431 14.751 8.53464 14.6626 8.52885L11.644 8.06959L10.3092 5.20859C10.2205 5.02253 10.0045 4.94687 9.82667 5.03961C9.75674 5.07608 9.70003 5.13542 9.66517 5.20859L8.31597 8.07335L5.30816 8.52885C5.11154 8.55868 4.97522 8.74968 5.00378 8.95546C5.01525 9.03818 5.05271 9.1146 5.11028 9.17257L7.29418 11.4011L6.7473 14.5482C6.71474 14.7533 6.84724 14.9472 7.04323 14.9813C7.1204 14.9947 7.19965 14.9814 7.269 14.9435L9.98538 13.4603L12.6874 14.9473C12.8583 15.0533 13.079 14.9944 13.1804 14.8156C13.226 14.7351 13.2413 14.6398 13.2235 14.5482L12.709 11.4011L14.8929 9.17257C15.0344 9.02656 15.0359 8.78822 14.8964 8.64023Z" fill="white"/>
<defs>
<linearGradient id="paint0_linear" x1="10" y1="0" x2="10" y2="20" gradientUnits="userSpaceOnUse">
<stop stop-color="#EE656A"/>
<stop offset="1" stop-color="#E21C23"/>
</linearGradient>
</defs>
</svg>
