<svg xmlns="http://www.w3.org/2000/svg" width="103" height="26" fill="none" class="swensens-logo"><path fill="#E21C23" fill-rule="evenodd" d="M77.274 7.985a2.29 2.29 0 0 0-.033.284l-.005 2.572c-.003 1.716-.006 3.432-.016 5.149 0 .508.1.933.557 1.23.155.115.287.258.386.422.163.242.072.522-.208.602-.167.047-.386.07-.532 0-.727-.35-1.501-.533-2.275-.718-.232-.055-.465-.11-.695-.17a4.898 4.898 0 0 1-.554-.158c-.384-.149-.434-.448-.1-.693.205-.142.429-.258.664-.343.311-.121.5-.332.548-.656.042-.28.065-.563.068-.847.004-.924.003-1.849.002-2.773l-.002-1.387.014-6.74c0-.126-.007-.253-.014-.378l-.004-.073a1.035 1.035 0 0 0-.523-.86 1.15 1.15 0 0 1-.37-.359c-.182-.3-.02-.573.336-.582.256-.006.512-.004.768-.002l.385.002H77.2c.468 0 .865.172 1.103.58a60.42 60.42 0 0 1 1.226 2.238c.468.89.931 1.787 1.394 2.684l.001.003.001.001.001.002v.001c.284.548.566 1.095.85 1.64l.186.36v.001c.249.482.497.963.748 1.444.033.063.073.12.113.18l.055.08.065-.012c.022-.09.037-.182.045-.274V3.344a.66.66 0 0 0-.356-.617 4.796 4.796 0 0 1-.343-.208c-.246-.165-.358-.43-.285-.664.074-.234.245-.354.576-.354l1.086-.002c.724-.001 1.449-.003 2.172.002.2 0 .288-.051.327-.264.105-.576.64-1.008 1.25-1.04.66-.033 1.236.347 1.403.94a1.765 1.765 0 0 1-.134 1.366c-.281.55-.76.972-1.339 1.184a3.31 3.31 0 0 1-.54.11l-.024-.071a.939.939 0 0 0 .188-.184c.113-.18.21-.37.287-.567.056-.158 0-.247-.21-.263-.13-.01-.248-.06-.365-.109-.07-.03-.14-.059-.212-.08l-.024-.006c-.105-.03-.235-.066-.31-.025-.602.327-1.011.802-1.013 1.523-.004 2.456-.003 4.912-.001 7.368l.002 3.683c0 1.179-.004 2.357-.008 3.536v.005l-.004 1.773c0 .213 0 .434-.218.55a.582.582 0 0 1-.639-.077 1.457 1.457 0 0 1-.414-.452 1071.115 1071.115 0 0 1-3.314-6.409l-2.994-5.815a1.493 1.493 0 0 0-.173-.22l-.085.028Zm-53.832 2.148.05-.126c.05.126.08.191.11.255l.003.008c.065.212.128.425.192.637v.002c.078.259.155.518.234.776.651 2.15 1.305 4.3 1.96 6.448.043.144.098.284.167.417.18.335.4.35.59.026.112-.195.202-.402.27-.617.175-.538.345-1.078.516-1.618.109-.345.218-.69.328-1.033.732-2.29 1.465-4.58 2.2-6.872l.412-1.29c.343-1.073.685-2.148 1.035-3.222.059-.18.165-.34.307-.463.185-.15.377-.043.416.193.008.067.011.134.008.2-.005 3.685-.005 7.37 0 11.054.001.714-.239 1.28-.865 1.67-.177.124-.33.28-.452.457-.122.162-.2.361-.073.563.126.201.342.188.543.156.175-.028.349-.066.522-.103.137-.029.274-.058.411-.083l1.284-.239c1.188-.221 2.376-.443 3.57-.637.577-.093 1.16-.142 1.744-.19.283-.025.566-.048.848-.077.546-.057.834-.321.91-.86.154-1.115.305-2.233.454-3.351a.44.44 0 0 0 0-.246l-.004-.008c-.065-.122-.151-.282-.262-.316a.463.463 0 0 0-.387.13c-.135.15-.237.325-.301.515-.659 1.89-2.105 2.715-3.982 2.952-.41.052-.51-.052-.51-.466V10.042c-.004-.109-.008-.217.169-.223.71-.027 1.307.188 1.683.824.078.132.13.28.182.427.035.097.069.194.11.287.086.225.198.438.335.635.208.265.509.208.618-.113.073-.221.11-.453.112-.686.003-.997.002-1.994 0-2.99V6.706c.003-.067 0-.134-.01-.2l-.004-.024c-.032-.174-.068-.364-.273-.408-.215-.046-.351.089-.445.254a8.76 8.76 0 0 0-.351.692c-.366.794-.992 1.184-1.857 1.222-.204.01-.278-.049-.278-.263.004-.491.003-.981.002-1.471l-.002-.735V3.719c.002-.36.075-.433.422-.433l.183.001c.34.001.68.002 1.02.023.696.045 1.389.15 1.9.662.251.253.46.547.67.842.095.133.19.267.289.396.174.253.363.496.565.726.165.169.37.108.42-.122A2.57 2.57 0 0 0 41.216 5c-.071-.617-.165-1.233-.259-1.848l-.07-.458c-.134-.89-.427-1.152-1.33-1.203H29.431c-.159 0-.317.015-.472.048-.323.068-.396.266-.186.524.14.172.299.327.475.46a.936.936 0 0 1 .401.771c.01.3-.026.599-.107.887a642.294 642.294 0 0 1-1.916 5.614c-.039.11-.115.207-.191.303-.035.045-.07.089-.102.135a2.392 2.392 0 0 0-.098-.145c-.073-.103-.147-.206-.177-.32-.174-.653-.332-1.31-.49-1.966l-.124-.515-.216-.877c-.251-1.022-.502-2.044-.76-3.064-.097-.387-.002-.688.318-.926.094-.069.181-.147.26-.233.227-.256.166-.527-.162-.617a2.711 2.711 0 0 0-.691-.084 445.56 445.56 0 0 0-2.674-.002l-1.337.002a1.62 1.62 0 0 0-.445.057c-.3.09-.447.377-.3.653.082.165.236.354.4.409.425.139.607.44.726.825.074.236.146.473.219.71.204.665.408 1.33.63 1.99.112.315.12.66.021.98-.457 1.517-.91 3.036-1.363 4.554l-.146.486c-.034.12-.081.237-.14.348-.086.15-.2.157-.287.01a2.044 2.044 0 0 1-.2-.457c-.722-2.495-1.44-4.991-2.157-7.488a14.34 14.34 0 0 1-.282-1.116c-.068-.341.014-.639.314-.864.158-.125.297-.272.412-.436.197-.265.127-.485-.19-.571a2.58 2.58 0 0 0-.667-.088c-.786-.004-1.572-.004-2.359-.004-.726 0-1.452 0-2.178-.003a1.09 1.09 0 0 0-.729.271c-.176.15-.38.26-.601.326a1.572 1.572 0 0 1-1.518-.357A3.128 3.128 0 0 0 8.77.936 6.45 6.45 0 0 0 6.725.9c-1.924.292-3.67 2.028-4.071 4.046-.301 1.547.076 2.95.902 4.254.872 1.371 2.087 2.4 3.437 3.277.323.21.65.415.976.62.67.421 1.34.842 1.982 1.303a7.835 7.835 0 0 1 2.447 2.777c.417.812.65 1.668.558 2.585-.223 2.168-1.95 4.034-4.095 4.446-2.31.444-4.5-1.227-4.652-3.556-.065-1.048.317-2.026 1.396-2.483a2.41 2.41 0 0 0 .602-.4c.677-.573 1.01-1.284.81-2.182-.201-.899-.784-1.493-1.645-1.759-1.66-.51-3.292.085-4.211 1.553-1.127 1.8-1.256 3.709-.425 5.657.986 2.312 2.684 3.836 5.147 4.438a9.634 9.634 0 0 0 5.006-.092c1.813-.515 3.242-1.586 4.286-3.156.802-1.207 1.298-2.532 1.35-3.984.071-1.995-.564-3.764-1.813-5.314-.908-1.13-2.032-1.996-3.294-2.697-1.403-.778-2.713-1.682-3.8-2.875-.643-.705-1.19-1.47-1.38-2.43-.203-1.021.3-1.788 1.319-2.005 1.158-.246 2.118.152 2.954.93.63.587 1.11 1.29 1.524 2.04.05.088.098.177.146.267.159.29.317.582.5.856.132.2.347.384.615.289.267-.095.286-.37.267-.597a13.309 13.309 0 0 0-.21-1.658c-.139-.634-.24-1.263-.2-1.911.003-.125.025-.249.065-.367.098-.257.296-.29.441-.063.12.19.213.396.275.611.77 2.62 1.54 5.241 2.306 7.862.875 2.99 1.75 5.979 2.627 8.969.037.145.087.287.148.425.108.217.263.402.536.38.273-.02.396-.219.473-.455l3.358-10.211c.016-.048.034-.094.06-.156Zm65.27 14.021c1.49 1.218 3.263 1.627 5.15 1.642a8.882 8.882 0 0 0 2.986-.452c2.283-.78 3.884-2.313 4.773-4.549 1.237-3.112.496-5.858-1.657-8.3-.832-.941-1.852-1.652-2.95-2.26-1.395-.77-2.691-1.68-3.766-2.875-.62-.69-1.144-1.442-1.336-2.372-.211-1.03.3-1.805 1.33-2.02 1.103-.232 2.043.12 2.86.85.837.758 1.413 1.705 1.904 2.708.12.247.284.47.483.66a.61.61 0 0 0 .49.135c.107-.027.223-.25.232-.391a6.156 6.156 0 0 0-.029-1.121c-.03-.245-.074-.49-.118-.735-.065-.357-.13-.713-.15-1.07-.024-.442-.005-.886.015-1.33v-.001c.01-.247.022-.494.025-.741 0-.128-.041-.356-.1-.368a1.274 1.274 0 0 0-.545.036c-.049.011-.087.056-.127.102-.03.035-.06.07-.096.092l-.125.084c-.145.099-.293.198-.454.244a1.525 1.525 0 0 1-1.434-.305l-.006-.005c-.268-.216-.55-.445-.865-.575a4.804 4.804 0 0 0-3.643-.053c-2.818 1.068-4.098 4.261-2.847 7.094.82 1.86 2.274 3.149 3.936 4.231.349.227.702.446 1.056.664.549.339 1.097.678 1.624 1.047 1.118.784 2.075 1.738 2.722 2.962.41.774.644 1.596.592 2.478-.085 1.455-.766 2.61-1.869 3.521-.918.757-1.961 1.2-3.178 1.137-2.192-.113-3.862-1.963-3.704-4.132.06-.84.452-1.48 1.224-1.881.313-.157.604-.354.867-.586 1.072-.977.986-2.559-.168-3.443-1.223-.936-3.332-.7-4.449.486a5.314 5.314 0 0 0-1.46 3.639c-.049 2.377 1.003 4.273 2.808 5.753ZM50.233 6.689a2.269 2.269 0 0 1-.03.259l-.078.021-.065-.078c-.045-.054-.09-.108-.13-.167l-.799-1.166v-.001l-.001-.001a387.235 387.235 0 0 1-2.218-3.261 1.718 1.718 0 0 0-1.54-.814h-2.907a1.95 1.95 0 0 0-.325.02c-.254.043-.302.16-.14.353.09.109.194.206.31.288a1.274 1.274 0 0 1 .537.853c.035.188.051.38.05.572 0 1.3-.002 2.598-.003 3.897-.002 2.167-.004 4.334-.004 6.501.001.518-.161.892-.634 1.15a1.645 1.645 0 0 0-.53.546c-.146.222-.04.459.218.531.178.045.361.062.544.051.57-.021 1.14-.053 1.709-.084l.142-.008c.135-.009.271-.015.407-.023.34-.017.68-.034 1.017-.077a.542.542 0 0 0 .385-.284c.04-.125-.063-.315-.141-.458l-.002-.003c-.04-.068-.132-.11-.215-.147l-.03-.014c-.476-.218-.736-.591-.736-1.102a1087.37 1087.37 0 0 1-.002-4.813l.002-2.406c.012-.107.035-.212.066-.315l.043.06c.073.101.117.162.157.224a1404.735 1404.735 0 0 0 5.88 8.937c.134.2.307.371.51.501.293.185.567.031.623-.312.016-.124.022-.25.019-.375-.006-3.917-.006-7.834 0-11.751a5.68 5.68 0 0 1 .1-1.018.783.783 0 0 1 .507-.607c.194-.077.43-.182.383-.43-.047-.25-.32-.25-.52-.25-1.01-.01-2.021-.01-3.032-.004-.178 0-.372.027-.421.242-.05.216.103.366.278.425.522.178.615.585.615 1.055V6.69Zm17.774-5.188h3.984c.712 0 1.066.31 1.085 1.021.018.727.014 1.454.01 2.18l-.003.728a.74.74 0 0 1-.055.267c-.11.271-.351.325-.55.107a2.345 2.345 0 0 1-.277-.442c-.066-.115-.127-.232-.188-.349-.121-.23-.242-.46-.392-.672-.53-.746-1.272-1.109-2.187-1.115H67.68c-.28 0-.342.06-.343.338-.005 1.32-.007 2.64-.007 3.96 0 .261.08.328.357.322.848-.018 1.426-.469 1.711-1.323.05-.176.129-.342.234-.49.2-.257.513-.19.618.123.031.112.045.228.04.345v4.385c0 .158-.026.315-.08.464a.39.39 0 0 1-.437.262.423.423 0 0 1-.387-.339 16.83 16.83 0 0 1-.043-.173 6.192 6.192 0 0 0-.124-.455 1.545 1.545 0 0 0-1.564-1.018.308.308 0 0 0-.322.312v.175l.001 1.043v.002c.002.955.003 1.91-.007 2.865 0 .264.1.376.337.439 1.654.448 3.03-.008 4.154-1.276.135-.152.258-.317.38-.482.097-.13.194-.261.297-.386l.02-.024c.121-.146.261-.316.482-.24.232.079.24.323.224.514a34.853 34.853 0 0 1-.187 1.741c-.068.529-.144 1.056-.22 1.581v.002l-.06.422a2.06 2.06 0 0 1-.054.27c-.1.376-.288.49-.67.406-.208-.045-.415-.093-.623-.14-.33-.076-.659-.152-.99-.217a47.192 47.192 0 0 0-5.566-.69c-.607-.045-1.215-.089-1.821-.147-.215-.02-.459-.05-.54-.293-.076-.222.089-.38.237-.515a3.78 3.78 0 0 1 .49-.385 1.281 1.281 0 0 0 .634-1.15v-.022l.004-2.41c.003-2.413.006-4.824.02-7.236 0-.548-.1-1.025-.52-1.404a.755.755 0 0 1-.08-.1c-.282-.362-.186-.654.26-.748.18-.034.364-.05.548-.047h3.934l-.01.014ZM56.26 15.45c.636.5 1.421.771 2.23.772 1.757.04 4.14-1.135 4.305-3.835.094-1.558-.47-2.786-1.696-3.724-.344-.262-.69-.522-1.035-.782a91.91 91.91 0 0 1-1.835-1.402 12.92 12.92 0 0 1-1.265-1.171 1.704 1.704 0 0 1-.496-1.045c-.074-.78.328-1.243 1.102-1.297.461-.026.92.079 1.325.3.966.496 1.62 1.293 2.15 2.214.076.157.178.3.3.424.106.092.286.176.406.148.08-.02.167-.248.154-.372-.04-.432-.107-.86-.2-1.283-.164-.718-.323-1.433-.301-2.177a.83.83 0 0 0-.049-.27c-.12-.374-.4-.45-.681-.182a2.133 2.133 0 0 0-.226.268.738.738 0 0 1-.58.29c-.314.022-.55-.13-.786-.282-.05-.032-.098-.063-.148-.093-.98-.59-2.815-.827-4.069.262-.733.633-1.105 1.446-1.234 2.392-.194 1.435.127 2.724 1.23 3.71.468.42.984.788 1.5 1.157.219.156.437.312.652.472.193.144.39.284.587.424.361.256.723.513 1.062.795.778.645.983 1.485.702 2.442a1.145 1.145 0 0 1-1.015.875c-.514.07-.978-.083-1.425-.301-1.222-.596-2.088-1.532-2.638-2.77a1.203 1.203 0 0 0-.26-.39.526.526 0 0 0-.602-.116c-.224.102-.27.304-.262.525.002.091.014.183.033.272l.131.58c.224.996.45 1.992.684 2.986.048.194.128.378.238.545.125.198.303.203.454.02.1-.133.185-.276.255-.427.133-.27.311-.397.601-.312.254.075.492.196.702.358Z" clip-rule="evenodd"/></svg>